HIERARCHY
ROOT Hips
{
    OFFSET   0.000000   0.000000   0.000000
    CHANNELS 6 Xposition Yposition Zposition Zrotation Xrotation Yrotation
    JOINT Chest
    {
        OFFSET   0.000000   8.007240   0.000000
        CHANNELS 3 Zrotation Xrotation Yrotation
        JOINT Chest2
        {
            OFFSET   0.000000  22.077100   0.000000
            CHANNELS 3 Zrotation Xrotation Yrotation
            JOINT Neck
            {
                OFFSET   0.000000  23.254800   0.000000
                CHANNELS 3 Zrotation Xrotation Yrotation
                JOINT Head
                {
                    OFFSET   0.000000  14.370000   1.956600
                    CHANNELS 3 Zrotation Xrotation Yrotation
                    End Site
                    {
                        OFFSET   0.000000  19.566000   0.000000
                    }
                }
            }
            JOINT LeftCollar
            {
                OFFSET   3.911900  19.017000  -0.467064
                CHANNELS 3 Zrotation Xrotation Yrotation
                JOINT LeftShoulder
                {
                    OFFSET  10.383700   0.000000   0.000000
                    CHANNELS 3 Zrotation Xrotation Yrotation
                    JOINT LeftElbow
                    {
                        OFFSET  26.662100   0.001476   0.000517
                        CHANNELS 3 Zrotation Xrotation Yrotation
                        JOINT LeftWrist
                        {
                            OFFSET  28.869000  -0.000025  -0.000106
                            CHANNELS 3 Zrotation Xrotation Yrotation
                            JOINT LeftFinger0
                            {
                                OFFSET   2.044660  -2.323460   3.252850
                                CHANNELS 3 Zrotation Xrotation Yrotation
                                JOINT LeftFinger01
                                {
                                    OFFSET   3.088130   0.000000   0.000000
                                    CHANNELS 3 Zrotation Xrotation Yrotation
                                    JOINT LeftFinger02
                                    {
                                        OFFSET   2.639460   0.000000   0.000000
                                        CHANNELS 3 Zrotation Xrotation Yrotation
                                        End Site
                                        {
                                            OFFSET   2.582190   0.000000   0.000000
                                        }
                                    }
                                }
                            }
                            JOINT LeftFinger1
                            {
                                OFFSET   8.364480   0.000000   3.252850
                                CHANNELS 3 Zrotation Xrotation Yrotation
                                JOINT LeftFinger11
                                {
                                    OFFSET   4.646930   0.000000   0.000000
                                    CHANNELS 3 Zrotation Xrotation Yrotation
                                    JOINT LeftFinger12
                                    {
                                        OFFSET   2.323460   0.000000   0.000000
                                        CHANNELS 3 Zrotation Xrotation Yrotation
                                        End Site
                                        {
                                            OFFSET   2.273050   0.000000   0.000000
                                        }
                                    }
                                }
                            }
                            JOINT LeftFinger2
                            {
                                OFFSET   8.364490   0.000015   1.078090
                                CHANNELS 3 Zrotation Xrotation Yrotation
                                JOINT LeftFinger21
                                {
                                    OFFSET   5.111620   0.000000   0.000000
                                    CHANNELS 3 Zrotation Xrotation Yrotation
                                    JOINT LeftFinger22
                                    {
                                        OFFSET   2.788160   0.000016   0.000000
                                        CHANNELS 3 Zrotation Xrotation Yrotation
                                        End Site
                                        {
                                            OFFSET   2.727660   0.000000   0.000000
                                        }
                                    }
                                }
                            }
                            JOINT LeftFinger3
                            {
                                OFFSET   7.899780   0.000017  -1.078090
                                CHANNELS 3 Zrotation Xrotation Yrotation
                                JOINT LeftFinger31
                                {
                                    OFFSET   4.646930   0.000000   0.000000
                                    CHANNELS 3 Zrotation Xrotation Yrotation
                                    JOINT LeftFinger32
                                    {
                                        OFFSET   2.323470   0.000000   0.000000
                                        CHANNELS 3 Zrotation Xrotation Yrotation
                                        End Site
                                        {
                                            OFFSET   2.273050   0.000000   0.000000
                                        }
                                    }
                                }
                            }
                            JOINT LeftFinger4
                            {
                                OFFSET   7.435090   0.000000  -3.252850
                                CHANNELS 3 Zrotation Xrotation Yrotation
                                JOINT LeftFinger41
                                {
                                    OFFSET   3.717550   0.000000   0.000000
                                    CHANNELS 3 Zrotation Xrotation Yrotation
                                    JOINT LeftFinger42
                                    {
                                        OFFSET   1.858770   0.000000   0.000000
                                        CHANNELS 3 Zrotation Xrotation Yrotation
                                        End Site
                                        {
                                            OFFSET   1.818440   0.000000   0.000000
                                        }
                                    }
                                }
                            }
                        }
                    }
                }
            }
            JOINT RightCollar
            {
                OFFSET  -3.911900  19.017000  -0.467063
                CHANNELS 3 Zrotation Xrotation Yrotation
                JOINT RightShoulder
                {
                    OFFSET -10.383700   0.000019   0.000000
                    CHANNELS 3 Zrotation Xrotation Yrotation
                    JOINT RightElbow
                    {
                        OFFSET -26.662100   0.001175   0.000102
                        CHANNELS 3 Zrotation Xrotation Yrotation
                        JOINT RightWrist
                        {
                            OFFSET -28.869000   0.000016  -0.000079
                            CHANNELS 3 Zrotation Xrotation Yrotation
                            JOINT RightFinger0
                            {
                                OFFSET  -2.044660  -2.323490   3.252850
                                CHANNELS 3 Zrotation Xrotation Yrotation
                                JOINT RightFinger01
                                {
                                    OFFSET  -3.088140   0.000000   0.000000
                                    CHANNELS 3 Zrotation Xrotation Yrotation
                                    JOINT RightFinger02
                                    {
                                        OFFSET  -2.639460   0.000000   0.000000
                                        CHANNELS 3 Zrotation Xrotation Yrotation
                                        End Site
                                        {
                                            OFFSET  -2.582190   0.000000   0.000000
                                        }
                                    }
                                }
                            }
                            JOINT RightFinger1
                            {
                                OFFSET  -8.364480   0.000000   3.252850
                                CHANNELS 3 Zrotation Xrotation Yrotation
                                JOINT RightFinger11
                                {
                                    OFFSET  -4.646930   0.000000   0.000000
                                    CHANNELS 3 Zrotation Xrotation Yrotation
                                    JOINT RightFinger12
                                    {
                                        OFFSET  -2.323470   0.000000   0.000000
                                        CHANNELS 3 Zrotation Xrotation Yrotation
                                        End Site
                                        {
                                            OFFSET  -2.273050   0.000000   0.000000
                                        }
                                    }
                                }
                            }
                            JOINT RightFinger2
                            {
                                OFFSET  -8.364480   0.000000   1.078090
                                CHANNELS 3 Zrotation Xrotation Yrotation
                                JOINT RightFinger21
                                {
                                    OFFSET  -5.111620   0.000000   0.000000
                                    CHANNELS 3 Zrotation Xrotation Yrotation
                                    JOINT RightFinger22
                                    {
                                        OFFSET  -2.788160   0.000000   0.000000
                                        CHANNELS 3 Zrotation Xrotation Yrotation
                                        End Site
                                        {
                                            OFFSET  -2.727660   0.000000   0.000000
                                        }
                                    }
                                }
                            }
                            JOINT RightFinger3
                            {
                                OFFSET  -7.899780   0.000000  -1.078090
                                CHANNELS 3 Zrotation Xrotation Yrotation
                                JOINT RightFinger31
                                {
                                    OFFSET  -4.646930   0.000000   0.000000
                                    CHANNELS 3 Zrotation Xrotation Yrotation
                                    JOINT RightFinger32
                                    {
                                        OFFSET  -2.323470   0.000000   0.000000
                                        CHANNELS 3 Zrotation Xrotation Yrotation
                                        End Site
                                        {
                                            OFFSET  -2.273050   0.000000   0.000000
                                        }
                                    }
                                }
                            }
                            JOINT RightFinger4
                            {
                                OFFSET  -7.435090   0.000000  -3.252850
                                CHANNELS 3 Zrotation Xrotation Yrotation
                                JOINT RightFinger41
                                {
                                    OFFSET  -3.717550   0.000000   0.000000
                                    CHANNELS 3 Zrotation Xrotation Yrotation
                                    JOINT RightFinger42
                                    {
                                        OFFSET  -1.858770   0.000000   0.000000
                                        CHANNELS 3 Zrotation Xrotation Yrotation
                                        End Site
                                        {
                                            OFFSET  -1.818440   0.000000   0.000000
                                        }
                                    }
                                }
                            }
                        }
                    }
                }
            }
        }
    }
    JOINT LeftHip
    {
        OFFSET   9.783040   0.000000   0.000000
        CHANNELS 3 Zrotation Xrotation Yrotation
        JOINT LeftKnee
        {
            OFFSET   0.000032 -41.789100  -0.002222
            CHANNELS 3 Zrotation Xrotation Yrotation
            JOINT LeftAnkle
            {
                OFFSET   0.000087 -41.133200  -0.000135
                CHANNELS 3 Zrotation Xrotation Yrotation
                JOINT LeftToe
                {
                    OFFSET   0.000000  -6.358960  14.674500
                    CHANNELS 3 Zrotation Xrotation Yrotation
                    End Site
                    {
                        OFFSET   0.000000   0.000000   3.913200
                    }
                }
            }
        }
    }
    JOINT RightHip
    {
        OFFSET  -9.783040   0.000000   0.000000
        CHANNELS 3 Zrotation Xrotation Yrotation
        JOINT RightKnee
        {
            OFFSET   0.000047 -41.789100  -0.000896
            CHANNELS 3 Zrotation Xrotation Yrotation
            JOINT RightAnkle
            {
                OFFSET  -0.000117 -41.133300  -0.000248
                CHANNELS 3 Zrotation Xrotation Yrotation
                JOINT RightToe
                {
                    OFFSET   0.000000  -6.358970  14.674500
                    CHANNELS 3 Zrotation Xrotation Yrotation
                    End Site
                    {
                        OFFSET   0.000000   0.000000   3.913200
                    }
                }
            }
        }
    }
}
MOTION
Frames: 6
Frame Time:   0.016667
 -3.960860  88.901800   5.331410  -4.995910 -18.640200  -5.402910   5.486030  11.712900  -4.886680  12.376500  22.837700 -11.268400   8.636400   7.057090  -1.069010  14.744200  13.335000   0.009560  -2.025300   2.710230   2.556380 -68.409000  33.893900 -22.263300  -5.805400 -14.919500 -11.070900   7.619740  -4.636510  10.065900  41.923100  30.671000 -65.282300 -23.732400   0.000582   0.003641  -6.862740   0.000467  -0.001396 -35.146000   6.803420  -9.551560 -29.221400   0.009920   0.000716 -20.455000   0.004171  -0.004201 -28.611400   3.175630  -5.799590 -40.879400  -0.001491  -0.000117 -27.225700  -0.000136  -0.000613 -28.795200  -0.291516   0.530411 -42.263700  -0.000567   0.000722 -28.147600  -0.000529  -0.000761 -36.562100  -0.360534   0.486147 -54.845300  -0.001037   0.000577 -36.527000  -0.000932   0.000860  -0.939957  -2.075160  10.688500  55.705300  31.154700  46.265200  -3.806630 -19.617200 115.829000 -32.403800 -19.960100  12.297200 -40.705800  38.263000  81.451400  11.569700   0.001364  -0.000512   0.784818  -0.002428  -0.003646  22.122500   6.273040  15.044700  18.778600   0.001274  -0.002413  13.145000   0.000155  -0.003605  21.764100   5.295590  13.016700  22.368500   0.004019  -0.000581  14.897400   0.001467   0.003217  28.144000   4.420270   8.198950  35.694900   0.003951   0.003024  23.772800   0.000588   0.000214  37.590000  -0.404522  -0.525134  56.387600  -0.004876  -0.001772  37.554100  -0.002316   0.004840   5.606180  19.836600   4.099410   2.885020  12.712100  13.731500  -5.795650 -11.125800   1.835380   0.000000   0.000000  -0.000000   6.486080  17.424800  -4.781310   1.569710   6.077220  -9.161150  -5.915570  -4.512200   0.437388  -0.000000   0.000000  -0.000000
 -3.935080  88.903200   5.331370  -4.996280 -18.607000  -5.413420   5.476000  11.675900  -4.900250  12.353300  22.763400 -11.290300   8.645590   7.012910  -1.068930  14.760300  13.249500  -0.081846  -2.067790   2.711690   2.609680 -68.470800  33.895800 -22.203100  -5.794810 -14.909300 -11.043400   7.622540  -4.624640  10.061000  41.933000  30.680500 -65.287900 -23.728400   0.000513   0.003579  -6.860790   0.000439  -0.001260 -35.126200   6.799820  -9.552280 -29.205000   0.010081   0.000648 -20.443500   0.004268  -0.004164 -28.611700   3.175160  -5.798770 -40.869600  -0.001491  -0.000109 -27.219100  -0.000208  -0.000545 -28.795500  -0.290581   0.526896 -42.255000  -0.000566   0.000721 -28.141800  -0.000530  -0.000683 -36.560900  -0.359395   0.482935 -54.843600  -0.001036   0.000576 -36.525900  -0.000933   0.000937  -0.919126  -2.046920  10.769400  55.596700  31.264700  46.433700  -3.959020 -19.876200 115.833000 -32.405000 -19.886700  12.171300 -40.888900  38.365200  81.525700  11.941100   0.001369  -0.000520   0.970546  -0.002509  -0.003596  22.130600   6.344140  15.185200  18.802300   0.001258  -0.002392  13.161600   0.000156  -0.003636  21.923700   5.315620  12.962800  22.527800   0.003994  -0.000492  15.003500   0.001450   0.003280  28.213700   4.368490   8.081210  36.401300   0.003956   0.003002  24.243300   0.000578   0.000211  37.818600  -0.465341  -0.598720  56.731200  -0.004864  -0.001732  37.782900  -0.002303   0.004998   5.594640  19.815500   4.085670   2.874350  12.682600  13.759700  -5.781730 -11.114100   1.843570  -0.000000   0.000000   0.000000   6.464580  17.390500  -4.774740   1.576260   6.076940  -9.152750  -5.901270  -4.512910   0.444466   0.000000   0.000000   0.000000
 -3.908470  88.903500   5.331090  -4.995500 -18.568700  -5.422650   5.464820  11.635500  -4.910540  12.324400  22.683300 -11.299400   8.662960   6.979640  -1.069050  14.775200  13.183200  -0.150375  -2.113930   2.713970   2.662110 -68.529400  33.901500 -22.146000  -5.780420 -14.902900 -11.006300   7.628900  -4.610570  10.055300  41.939200  30.686500 -65.289400 -23.721200   0.000447   0.003515  -6.857650   0.000409  -0.001126 -35.111400   6.799190  -9.557840 -29.193100   0.010238   0.000579 -20.435200   0.004363  -0.004124 -28.611800   3.175040  -5.798560 -40.859800  -0.001491  -0.000101 -27.212600  -0.000283  -0.000479 -28.795800  -0.288916   0.522050 -42.246300  -0.000564   0.000720 -28.136000  -0.000531  -0.000608 -36.559700  -0.357371   0.478497 -54.842000  -0.001035   0.000574 -36.524800  -0.000933   0.001016  -0.895583  -2.022230  10.847900  55.489000  31.358700  46.588000  -4.111850 -20.158200 115.848000 -32.373500 -19.753900  11.976900 -41.081800  38.467300  81.600700  12.280100   0.001372  -0.000533   1.140050  -0.002592  -0.003548  22.192800   6.396980  15.275600  18.860200   0.001241  -0.002372  13.202200   0.000157  -0.003667  22.237700   5.354100  12.856700  22.841100   0.003967  -0.000397  15.212200   0.001433   0.003342  28.281600   4.314380   7.960010  37.134200   0.003958   0.002980  24.731400   0.000566   0.000209  38.053700  -0.528254  -0.674309  57.084900  -0.004852  -0.001691  38.018500  -0.002289   0.005155   5.584470  19.792600   4.070140   2.863600  12.645500  13.785900  -5.768370 -11.100000   1.854420  -0.000000   0.000000   0.000000   6.441610  17.351300  -4.768040   1.584590   6.075800  -9.141310  -5.886870  -4.513010   0.450115  -0.000000   0.000000   0.000000
 -3.881950  88.903700   5.326610  -4.993290 -18.527300  -5.429710   5.451430  11.594400  -4.914260  12.289000  22.603100 -11.292900   8.678810   6.962470  -1.069690  14.796100  13.147700  -0.188269  -2.157450   2.718370   2.710670 -68.588900  33.907600 -22.097200  -5.761490 -14.903100 -10.960300   7.652990  -4.594380  10.054300  41.934300  30.662600 -65.253200 -23.714300   0.000379   0.003440  -6.855750   0.000374  -0.000989 -35.120400   6.824740  -9.592120 -29.204000   0.010398   0.000516 -20.442800   0.004455  -0.004080 -28.612000   3.174940  -5.798350 -40.863700  -0.001494  -0.000105 -27.215200  -0.000360  -0.000407 -28.796100  -0.287827   0.521098 -42.250700  -0.000568   0.000716 -28.139000  -0.000531  -0.000533 -36.562600  -0.356045   0.477614 -54.846200  -0.001040   0.000575 -36.527600  -0.000935   0.001099  -0.866093  -1.995470  10.914600  55.365600  31.431300  46.737600  -4.243330 -20.439400 115.860000 -32.321000 -19.489400  11.833500 -41.191500  38.425900  81.521100  12.539900   0.001375  -0.000544   1.269960  -0.002677  -0.003497  22.309900   6.395080  15.211400  18.951600   0.001219  -0.002355  13.266200   0.000158  -0.003699  22.613200   5.398350  12.729600  23.215600   0.003937  -0.000295  15.461600   0.001415   0.003403  28.333700   4.266410   7.855710  37.775100   0.003957   0.002961  25.158200   0.000548   0.000210  38.238800  -0.578322  -0.733627  57.363600  -0.004837  -0.001646  38.204100  -0.002271   0.005316   5.572070  19.771600   4.052390   2.855790  12.598100  13.807000  -5.756210 -11.080800   1.872410  -0.000000   0.000000  -0.000000   6.416610  17.307900  -4.771310   1.592330   6.073640  -9.125530  -5.869620  -4.512540   0.462317  -0.000000   0.000000   0.000000
 -3.856130  88.903900   5.317940  -4.987560 -18.482500  -5.432350   5.434470  11.552300  -4.914170  12.248800  22.520900 -11.286100   8.698320   6.957730  -1.070680  14.831400  13.133900  -0.199980  -2.196690   2.725380   2.752610 -68.646400  33.909500 -22.052600  -5.737750 -14.904800 -10.913100   7.685230  -4.584690  10.054100  41.924400  30.626100 -65.203400 -23.706400   0.000315   0.003366  -6.853250   0.000339  -0.000851 -35.129900   6.850380  -9.621630 -29.215000   0.010556   0.000452 -20.450500   0.004543  -0.004037 -28.612100   3.174920  -5.798310 -40.879800  -0.001497  -0.000110 -27.225900  -0.000438  -0.000336 -28.796400  -0.285673   0.519763 -42.268700  -0.000571   0.000713 -28.151000  -0.000532  -0.000459 -36.573900  -0.353448   0.476336 -54.863100  -0.001046   0.000576 -36.538800  -0.000937   0.001182  -0.834204  -1.972640  10.972100  55.242900  31.484300  46.869500  -4.355530 -20.701900 115.864000 -32.218000 -19.152700  11.724200 -41.254400  38.301400  81.320800  12.736400   0.001377  -0.000553   1.368210  -0.002761  -0.003446  22.444800   6.373190  15.045500  19.052600   0.001198  -0.002341  13.336800   0.000159  -0.003731  22.999100   5.443070  12.599000  23.600300   0.003905  -0.000191  15.717800   0.001397   0.003467  28.364800   4.234580   7.787600  38.197600   0.003954   0.002943  25.439600   0.000530   0.000212  38.374100  -0.615172  -0.776957  57.567500  -0.004822  -0.001598  38.339900  -0.002253   0.005478   5.558270  19.748000   4.025990   2.846180  12.546100  13.829600  -5.742590 -11.058200   1.892580  -0.000000   0.000000   0.000000   6.387880  17.260100  -4.783350   1.601760   6.070850  -9.109290  -5.851820  -4.512070   0.477819  -0.000000   0.000000   0.000000
 -3.831950  88.905900   5.308230  -4.975230 -18.435500  -5.424060   5.411570  11.509700  -4.908480  12.194100  22.439500 -11.263900   8.725130   6.959810  -1.071670  14.877900  13.130600  -0.172189  -2.226180   2.736450   2.783590 -68.703200  33.901900 -22.011600  -5.707630 -14.906300 -10.871600   7.724950  -4.602160  10.061000  41.909100  30.598700 -65.186500 -23.696400   0.000255   0.003302  -6.848410   0.000313  -0.000711 -35.124400   6.840670  -9.609980 -29.209400   0.010711   0.000381 -20.446600   0.004627  -0.004004 -28.611300   3.179430  -5.806400 -40.915300  -0.001494  -0.000111 -27.249500  -0.000516  -0.000278 -28.796700  -0.280186   0.510555 -42.309300  -0.000571   0.000718 -28.178000  -0.000529  -0.000389 -36.598900  -0.346853   0.467758 -54.900500  -0.001038   0.000572 -36.563800  -0.000937   0.001265  -0.802196  -1.957440  11.017700  55.139600  31.520000  46.971100  -4.439220 -20.913900 115.852000 -32.038700 -18.773700  11.667700 -41.238300  38.054200  80.987700  12.879600   0.001366  -0.000555   1.439800  -0.002837  -0.003395  22.587400   6.294630  14.764200  19.153500   0.001180  -0.002327  13.407400   0.000161  -0.003765  23.325700   5.480000  12.488100  23.925600   0.003872  -0.000100  15.934500   0.001387   0.003550  28.372400   4.226340   7.769820  38.307800   0.003948   0.002919  25.513000   0.000517   0.000217  38.431000  -0.630723  -0.795334  57.653300  -0.004807  -0.001547  38.397100  -0.002241   0.005639   5.543290  19.719000   3.981470   2.829040  12.496100  13.861200  -5.725030 -11.035200   1.912560  -0.000000   0.000000   0.000000   6.351530  17.207800  -4.806730   1.614890   6.069340  -9.096260  -5.834150  -4.512160   0.501565   0.000000   0.000000  -0.000000
